<?xml version="1.0" encoding="UTF-8"?>
<svg xmlns="http://www.w3.org/2000/svg" width="171" height="96" viewBox="0 0 169.457 95.358">
  <path d="M53.325 50.6h4.178c3.588 0 6.869 1.207 6.869 5.788 0 4.473-2.809 6.091-6.35 6.091h-1.393v7.271h-3.304V50.6zm3.305 8.862h1.157c1.652 0 3.139-.631 3.139-2.854 0-2.222-1.44-2.99-3.139-2.99H56.63v5.844zM66.733 50.6h3.305v16.132h6.397v3.018h-9.702V50.6zM78.416 50.6h3.305v11.056c0 3.266.897 5.405 3.423 5.405s3.423-2.14 3.423-5.405V50.6h3.305v12.235c0 5.131-2.502 7.243-6.728 7.243-4.225 0-6.728-2.112-6.728-7.243V50.6zM95.576 50.6h5.288l3.918 14.513h.047l3.918-14.513h5.288v19.149h-3.163V53.947h-.047l-4.438 15.803h-3.163l-4.437-15.803-.047.055V69.75h-3.163l-.001-19.15zM117.859 50.6h5.76c2.125 0 5.311.713 5.311 4.91 0 2.277-1.322 3.869-3.281 4.28v.055c2.243.247 3.777 2.003 3.777 4.362 0 4.829-3.729 5.542-5.807 5.542h-5.76V50.6zm3.304 7.737h1.346c1.393 0 3.116-.356 3.116-2.332 0-2.223-1.676-2.387-3.187-2.387h-1.275v4.719zm0 8.395h1.558c1.534 0 3.399-.439 3.399-2.661 0-2.497-1.747-2.881-3.399-2.881h-1.558v5.542zM131.997 50.6h3.305v19.149h-3.305V50.6zM138.677 50.6h4.061l6.279 14.321h.047V50.6h3.163v19.149h-4.037l-6.303-14.321h-.047v14.321h-3.164l.001-19.149zM168.749 54.303c-1.274-.686-2.927-1.015-4.249-1.015-3.848 0-5.972 3.018-5.972 6.94 0 3.896 2.078 6.832 5.595 6.832.897 0 1.605-.11 2.171-.274v-4.993h-3.493v-3.019h6.656V69.09c-1.747.549-3.564.987-5.334.987-5.335 0-9.041-3.1-9.041-9.575 0-6.557 3.446-10.233 9.041-10.233 1.912 0 3.423.302 4.839.796l-.213 3.238zM53.609 75.881h3.305v7.736h6.609v-7.736h3.305V95.03h-3.305v-8.396h-6.609v8.396h-3.305V75.881zM70.651 75.881h9.725v3.018h-6.42v4.719h5.878v3.018h-5.878v5.378h6.468v3.018h-9.772l-.001-19.151zM88.495 75.881h3.729l6.468 19.149h-3.659l-1.417-4.39h-6.68l-1.44 4.39h-3.423l6.422-19.149zm1.818 3.84h-.047l-2.384 7.901h4.815l-2.384-7.901zM101.929 78.898h-4.721V75.88h12.747v3.018h-4.721V95.03h-3.305V78.898zM111.773 75.881h3.305V95.03h-3.305V75.881zM118.452 75.881h4.061l6.279 14.32h.047v-14.32h3.163V95.03h-4.037l-6.303-14.321h-.047V95.03h-3.164l.001-19.149zM148.524 79.584c-1.274-.686-2.927-1.015-4.249-1.015-3.848 0-5.972 3.018-5.972 6.94 0 3.896 2.078 6.832 5.595 6.832.897 0 1.605-.11 2.171-.274v-4.993h-3.493v-3.018h6.656v10.315c-1.747.549-3.564.987-5.334.987-5.335 0-9.041-3.1-9.041-9.575 0-6.557 3.446-10.233 9.041-10.233 1.912 0 3.423.302 4.839.796l-.213 3.238z"></path>
  <g>
    <path d="M38.9 92.212v-1.376l7.072-2.389v1.352l-1.621.522v2.466l1.621.531v1.264l-7.072-2.37zm1.418-.671v.018l2.918.88v-1.777l-2.918.879zM38.9 87.723v-1.499l5.289-2.317v-.018H38.9v-1.167h7.072v1.49l-5.289 2.326v.017h5.289v1.168H38.9zM38.9 81.371v-1.665c0-1.864.729-3.511 3.536-3.511s3.536 1.646 3.536 3.511v1.665H38.9zm5.958-1.221v-.68c0-1.02-.882-2.004-2.422-2.004s-2.421.984-2.421 2.004v.68h4.843z"></path>
  </g>
  <path d="M0 0h45.983v71.684H0z"></path>
  <g>
    <path d="M6.21 4.918h5.315l7.646 56.902-.711-56.776 3.641-.095v61.918h-5.315l-7.34-55.476.636 55.476H6.209L6.21 4.918z" fill="#fff"></path>
  </g>
  <g>
    <path d="M33.459 4.695c-5.288 0-6.859 1.951-6.581 5.966v50.583c-.278 4.035 1.293 5.997 6.581 5.997 5.315-.021 6.9-1.981 6.9-5.997V49.251h-3.721v11.992c0 1.021-.413 2.731-3.179 2.731-2.73 0-3.138-1.711-3.138-2.731V10.66c0-1.008.408-2.699 3.138-2.699 2.771 0 3.179 1.691 3.179 2.699v12.024h3.721V10.66c.001-4.014-1.584-5.965-6.9-5.965z" fill="#fff"></path>
  </g>
</svg>
